<svg viewBox="0 0 24 24" xmlns="http://www.w3.org/2000/svg" xmlns:xlink="http://www.w3.org/1999/xlink" width="24.000000" height="24.000000" fill="none">
	<rect id="edit-line" width="24.000000" height="24.000000" x="0.000000" y="0.000000" fill="rgb(255,255,255)" fill-opacity="0" />
	<path id="矢量 52" d="M8.276 14.7939L15.0373 7.68407L14.0947 6.69283L7.33333 13.8026L7.33333 14.7939L8.276 14.7939ZM8.82867 16.1959L6 16.1959L6 13.2215L13.6233 5.20525C13.7483 5.07383 13.9179 5 14.0947 5C14.2715 5 14.441 5.07383 14.566 5.20525L16.452 7.18845C16.577 7.31991 16.6472 7.49818 16.6472 7.68407C16.6472 7.86996 16.577 8.04823 16.452 8.1797L8.82867 16.1959L8.82867 16.1959ZM6 17.598L18 17.598L18 19L6 19L6 17.598Z" fill="rgb(255,255,255)" fill-rule="evenodd" />
</svg>
